<?xml version="1.0" encoding="utf-8"?>
<!-- Generator: Adobe Illustrator 27.0.0, SVG Export Plug-In . SVG Version: 6.00 Build 0)  -->
<svg version="1.1" id="Layer_1" xmlns:serif="http://www.serif.com/"
	 xmlns="http://www.w3.org/2000/svg" xmlns:xlink="http://www.w3.org/1999/xlink" x="0px" y="0px" viewBox="0 0 456 456"
	 style="enable-background:new 0 0 456 456;" xml:space="preserve">
<style type="text/css">
	.st0{fill:#FFFFFF;}
</style>
<g>
	<path class="st0" d="M212.6,401.3c-10.2,0.1-20.3-0.7-30.3-2.9c-10.9-2.5-21.6-5.8-32-10.3c-5-2.2-10-4.6-14.6-7.5
		c-6.9-4.2-13.7-8.7-19.8-14.1c-3.5-3.1-7.1-6.3-10.3-9.7c-3.5-3.8-6.8-7.7-9.8-12c-3.9-5.6-7.7-11.4-10.7-17.6
		c-3.5-7.3-6.5-14.8-9-22.6c-5.4-17-6.7-34.5-6.1-52.1c0.4-11.5,1.9-23,4.8-34.2c1.6-6.2,3.4-12.4,5.7-18.4
		c3.4-8.7,6.9-17.4,11.6-25.5c5.2-9.1,10.7-17.9,17.3-26.1c5.5-6.7,11-13.3,17.1-19.5c4.2-4.1,8.3-8.2,12.5-12.3
		c7.9-7.7,16.4-14.6,25.2-21.1c7.5-5.5,15.2-10.6,23.2-15.3c4.9-2.8,10.1-5.1,14.8-8.1c1.3-0.8,2.8-1.2,4.3-1.9
		c8-3.5,16.2-6.5,24.6-9.1c10.2-3.1,20.5-4.6,31-5.6c3.2-0.3,6.4-0.9,9.6-0.6c9.7,0.9,19.5,1.6,28.8,4.4c5.3,1.5,10.6,3.2,15.5,5.6
		c5.3,2.6,10.6,5.2,15.5,8.7c7,4.9,13.5,10.1,19.3,16.2c4.2,4.4,7.9,9.3,11.5,14.3c3.2,4.5,5.5,9.5,8.4,14.1c1,1.6,1.5,3.4,2.3,5.1
		c3.8,8.5,6.3,17.4,8.6,26.4c2.6,10.2,3.4,20.6,4,31c0.9,13.8-0.2,27.6-1.8,41.3c-1.4,11.9-4,23.5-7,35c-1.8,6.9-3.4,14-6.2,20.6
		c-2,4.9-3.2,10.1-5.6,14.7c-2.8,5.3-4.4,11.1-7.7,16.1c-1.8,2.8-2.8,6.2-4.8,9c-2.6,3.7-4.8,7.7-7.5,11.4
		c-3.3,4.6-6.7,9.1-10.2,13.5c-2.3,2.9-4.9,5.6-7.4,8.3c-0.8,0.8-1.8,1.5-2.6,2.3c-6.2,6.8-13.3,12.6-20.8,18
		c-7.1,5.1-14.4,9.7-22.3,13.7c-5.3,2.7-10.9,4.7-16.4,7.1c-6.2,2.7-12.9,3.8-19.3,5.8C235.2,400.6,223.9,400.9,212.6,401.3z
		 M119.1,176.1c0.7-0.4,1.1-0.6,1.4-0.8c6.2-4.5,13.1-8,19.9-11.4c5.2-2.6,10.7-4.6,16.2-6.4c9.7-3.2,19.7-5.4,29.8-7.2
		c1.8-0.3,1.8-0.9,1.1-2.3c-1.8-3.4-3-6.9-3.6-10.7c-0.8-5.8,3.1-14.2,8-17.3c4.6-2.9,9.6-4.2,15.1-3.8c6,0.5,11.1,2.6,14.8,7.9
		c2,2.9,3.4,6.2,5.5,9.1c2.1,3,4.3,3.7,7.4,1.7c2.5-1.6,4.7-3.7,7.7-4.6c4.4-1.3,6.9-0.3,8.4,4c2,6,3.9,12,5.2,18.2
		c1,4.3,2,4.8,6.2,3.5c2.9-0.9,5.7-2.2,8.8-2.2c2.4,0,3.3,0.9,3.6,3.3c0.3,3.4-0.8,6.5-2,9.5c-0.9,2-0.1,2.4,1.6,2.7
		c3,0.4,5.9,1,8.7,2.1c4.6,1.9,5.7,3,5.7,8c0,5.6-0.7,11.1-1.2,16.7c-0.6,6,0.6,11.2,4.8,15.9c3.9,4.3,8,8.3,12.2,12.3
		c2.4,2.2,4.5,4.9,6.4,7.6c2,2.8,3.2,6,4.5,9.1c0.9,2.3,1.5,4.7-0.3,6.8c-1.7,2.1-4.1,1.9-6.5,1.3c-3.3-0.9-6.4-2.3-9.4-4
		c-6.5-3.6-13.5-4.9-20.8-4.6c-6.3,0.3-11.1,3.3-14.5,8.4c-2.4,3.5-3.6,7.7-4.5,11.8c-1.2,5.6-0.8,11.4-0.3,17.1
		c0.2,2.3,1.6,4.4,1,6.6c-0.7,2.9-1.9,5.6-4.3,7.8c-3.6,3.3-7.9,4.3-12.4,4.5c-8,0.3-14.9-4.6-14.6-13.7c0.1-3.5-1.9-5.1-5.4-4.6
		c-0.9,0.1-1.8,0.4-2.7,0.6c-7.2,1.6-14-2.1-16.7-9c-2.4-6,1.8-12.4,6.7-16.2c5.6-4.3,12.5-6.3,18.3-10.3c5.2-3.7,9.4-7.8,11.9-13.8
		c1.6-4,1-7.2-1.1-10.5c-1.7-2.6-5.9-3.8-8.7-2.7c-5.4,2.2-10.9,2.8-16.6,1.6c-5.9-1.2-10.9-4.1-13.5-9.7
		c-4.7-10.1-0.9-24.5,12-28.3c8.7-2.6,16.7-1.3,23.8,4.6c3.3,2.8,5.1,6.5,6.2,10.6c0.3,1.1,0.6,1.9,1.6,2.4
		c3.3,1.4,6.6,2.7,10.3,2.6c4.7,0,6.8-3.7,5-8c-3.1-7.4-8.2-13.1-14.5-18.1c-6.5-5.1-13.9-8.3-21.6-10.8c-6.3-2-12.8-3-19.4-3.7
		c-9.1-1-18.1-0.6-27.1,0.7c-7.2,1.1-14,3.2-20.7,5.8c-6.3,2.4-12,5.7-17.5,9.4c-6.3,4.3-12,9.4-17.1,15.1
		c-4.1,4.6-7.6,9.6-10.6,14.9c-2.7,4.8-5.2,9.9-6.6,15.3c-2.6,9.7-4.7,19.5-5.1,29.6c-0.4,8.3,1,16.4,2.6,24.4
		c1,4.9,1.9,9.8,4.1,14.3c2.6,5.2,4.7,10.5,7.6,15.6c4.5,7.8,9.9,14.8,15.9,21.3c4.9,5.4,10.6,10,16.6,14.4
		c5.5,4,11.2,7.4,17.2,10.4c2.4,1.2,5.1,2,7.4,3.3c7.3,4,15.4,5.6,23.3,7.4c9.6,2.3,19.6,2.9,29.6,2.2c7.3-0.5,14.5-1,21.5-3.2
		c6.8-2.1,13.8-3.5,20.1-7c3.8-2.1,7.8-3.7,11.5-5.9c5.1-2.9,9.6-6.5,14.3-9.8c3.1-2.2,5.9-4.8,8.5-7.5c2.9-3,5.9-5.9,8.7-9
		c2.7-2.9,5.2-5.9,7.6-9c5.2-6.8,10-13.9,14-21.5c0.9-1.8,1.6-3.8,2.8-5.4c3.5-4.7,5.1-10.4,7.7-15.6c2.5-5.1,3.9-10.7,6-16.1
		c2.4-6.3,3.8-12.9,5.6-19.4c3.4-11.9,4.4-24.2,6.3-36.3c0.9-5.9,1-11.9,1-17.9c0-9.1-0.2-18.2-1.9-27.3c-1.3-7.1-2.1-14.3-4.3-21.1
		c-2.5-7.6-5.5-15-9.6-22.1c-4.3-7.6-9.5-14.3-15.8-20.2c-6.7-6.2-14.3-11.3-22.8-14.9c-1.6-0.7-3.4-1.1-5-1.9
		c-4.6-2.4-9.7-3.3-14.7-4.2c-8.3-1.4-16.6-1.7-25-1c-5.2,0.4-10.3,1.1-15.4,2.3c-9.1,2.3-17.9,5.3-26.4,9.2
		c-5.6,2.6-11,5.6-16.5,8.5c-1.5,0.8-3.1,1.5-4.4,2.6c-3.5,3-7.5,5.2-11.3,7.7c-7.1,4.9-13.7,10.4-20,16.1
		c-5.3,4.8-10.4,9.9-15.2,15.2c-2.9,3.2-5.9,6.4-8.5,9.7c-5.7,7.1-11.3,14.5-16,22.4C124,166.3,120.8,170.5,119.1,176.1z"/>
</g>
</svg>
